<svg width="60" height="60" viewBox="0 0 60 60" xmlns="http://www.w3.org/2000/svg">
  <defs>
    <!-- Gradient definitions -->
    <linearGradient id="primaryGradient" x1="0%" y1="0%" x2="100%" y2="100%">
      <stop offset="0%" style="stop-color:#3b82f6;stop-opacity:1" />
      <stop offset="50%" style="stop-color:#1d4ed8;stop-opacity:1" />
      <stop offset="100%" style="stop-color:#1e40af;stop-opacity:1" />
    </linearGradient>
    
    <linearGradient id="accentGradient" x1="0%" y1="0%" x2="100%" y2="0%">
      <stop offset="0%" style="stop-color:#10b981;stop-opacity:1" />
      <stop offset="100%" style="stop-color:#059669;stop-opacity:1" />
    </linearGradient>
    
    <!-- Glow effect -->
    <filter id="glow">
      <feGaussianBlur stdDeviation="2" result="coloredBlur"/>
      <feMerge> 
        <feMergeNode in="coloredBlur"/>
        <feMergeNode in="SourceGraphic"/>
      </feMerge>
    </filter>
  </defs>
  
  <!-- Background circle with gradient -->
  <circle cx="30" cy="30" r="28" fill="url(#primaryGradient)" opacity="0.1"/>
  
  <!-- Main R letter with modern geometric design -->
  <g transform="translate(8, 8)">
    <!-- R letter structure -->
    <path d="M8 8 L8 36 L12 36 L12 20 L18 20 L24 36 L28 36 L22 20 L18 20 L18 8 Z" 
          fill="url(#primaryGradient)" 
          filter="url(#glow)"/>
    
    <!-- Diagonal stroke of R -->
    <path d="M18 20 L24 8 L28 8 L22 20 Z" 
          fill="url(#primaryGradient)"/>
    
    <!-- AI accent elements -->
    <circle cx="32" cy="12" r="2" fill="url(#accentGradient)" opacity="0.8"/>
    <rect x="31" y="16" width="2" height="6" rx="1" fill="url(#accentGradient)" opacity="0.8"/>
    <circle cx="32" cy="26" r="1.5" fill="url(#accentGradient)" opacity="0.6"/>
    
    <!-- Data flow lines -->
    <path d="M36 10 L38 10 L38 12 L36 12 Z" fill="url(#accentGradient)" opacity="0.4"/>
    <path d="M36 16 L40 16 L40 17 L36 17 Z" fill="url(#accentGradient)" opacity="0.4"/>
    <path d="M36 22 L39 22 L39 23 L36 23 Z" fill="url(#accentGradient)" opacity="0.4"/>
  </g>
</svg>
