<svg xmlns="http://www.w3.org/2000/svg" viewBox="0 0 24 24" fill="none" stroke="currentColor" stroke-width="1.5" stroke-linecap="round" stroke-linejoin="round">
  <path d="M12 22s8-4 8-10V5l-8-3-8 3v7c0 6 8 10 8 10z"/>
  <path d="M9 12l2 2 4-4"/>
  <circle cx="12" cy="12" r="3"/>
  <path d="M12 1v6M12 17v6M1 12h6M17 12h6"/>
  <path d="M6 6l3 3 3-3M6 18l3-3 3 3M6 9l3 3-3 3M18 9l-3 3 3 3"/>
  <circle cx="8" cy="8" r="1"/>
  <circle cx="16" cy="8" r="1"/>
  <circle cx="8" cy="16" r="1"/>
  <circle cx="16" cy="16" r="1"/>
</svg>
