<svg xmlns="http://www.w3.org/2000/svg" viewBox="0 0 24 24" fill="none" stroke="currentColor" stroke-width="1.5" stroke-linecap="round" stroke-linejoin="round">
  <path d="M3 3h18v18H3z"/>
  <path d="M9 3v18M15 3v18M3 9h18M3 15h18"/>
  <circle cx="6" cy="6" r="1"/>
  <circle cx="18" cy="6" r="1"/>
  <circle cx="6" cy="18" r="1"/>
  <circle cx="18" cy="18" r="1"/>
  <path d="M12 3v6M12 15v6M3 9h6M15 9h6M3 15h6M15 15h6"/>
  <path d="M9 6l3 3 3-3M9 18l3-3 3 3"/>
  <circle cx="12" cy="12" r="2"/>
  <path d="M6 6l3 3 3-3M6 18l3-3 3 3M6 9l3 3-3 3M18 9l-3 3 3 3"/>
</svg>
