<svg xmlns="http://www.w3.org/2000/svg" viewBox="0 0 24 24" fill="none" stroke="currentColor" stroke-width="1.5" stroke-linecap="round" stroke-linejoin="round">
  <circle cx="12" cy="12" r="3"/>
  <path d="M12 1v6M12 17v6M1 12h6M17 12h6"/>
  <path d="M6 6l3 3 3-3M6 18l3-3 3 3M6 9l3 3-3 3M18 9l-3 3 3 3"/>
  <circle cx="12" cy="12" r="1"/>
  <path d="M9 6l3 3 3-3M9 18l3-3 3 3"/>
  <path d="M3 3h6v6H3zM15 3h6v6h-6zM3 15h6v6H3zM15 15h6v6h-6z"/>
  <path d="M9 9h6v6H9z"/>
  <path d="M12 3v6M12 15v6M3 9h6M15 9h6M3 15h6M15 15h6"/>
</svg>
