<svg xmlns="http://www.w3.org/2000/svg" viewBox="0 0 24 24" fill="none" stroke="currentColor" stroke-width="1.5" stroke-linecap="round" stroke-linejoin="round">
  <path d="M17 21v-2a4 4 0 0 0-4-4H5a4 4 0 0 0-4 4v2"/>
  <circle cx="9" cy="7" r="4"/>
  <path d="M23 21v-2a4 4 0 0 0-3-3.87"/>
  <path d="M16 3.13a4 4 0 0 1 0 7.75"/>
  <path d="M9 11h6M12 8v6"/>
  <circle cx="12" cy="12" r="2"/>
  <path d="M12 1v6M12 17v6M1 12h6M17 12h6"/>
  <path d="M6 6l3 3 3-3M6 18l3-3 3 3M6 9l3 3-3 3M18 9l-3 3 3 3"/>
</svg>
