<svg width="60" height="60" viewBox="0 0 60 60" xmlns="http://www.w3.org/2000/svg">
  <defs>
    <linearGradient id="radarGradient" x1="0%" y1="0%" x2="100%" y2="100%">
      <stop offset="0%" style="stop-color:#3b82f6;stop-opacity:1" />
      <stop offset="50%" style="stop-color:#1d4ed8;stop-opacity:1" />
      <stop offset="100%" style="stop-color:#1e40af;stop-opacity:1" />
    </linearGradient>
    
    <linearGradient id="sweepGradient" x1="0%" y1="0%" x2="100%" y2="0%">
      <stop offset="0%" style="stop-color:#10b981;stop-opacity:1" />
      <stop offset="100%" style="stop-color:#059669;stop-opacity:1" />
    </linearGradient>
    
    <radialGradient id="centerGlow" cx="50%" cy="50%" r="50%">
      <stop offset="0%" style="stop-color:#ffffff;stop-opacity:1" />
      <stop offset="70%" style="stop-color:#3b82f6;stop-opacity:0.8" />
      <stop offset="100%" style="stop-color:#1d4ed8;stop-opacity:0.3" />
    </radialGradient>
    
    <filter id="sweepGlow">
      <feGaussianBlur stdDeviation="1.5" result="coloredBlur"/>
      <feMerge> 
        <feMergeNode in="coloredBlur"/>
        <feMergeNode in="SourceGraphic"/>
      </feMerge>
    </filter>
    
    <filter id="pulseGlow">
      <feGaussianBlur stdDeviation="0.8" result="coloredBlur"/>
      <feMerge> 
        <feMergeNode in="coloredBlur"/>
        <feMergeNode in="SourceGraphic"/>
      </feMerge>
    </filter>
  </defs>
  
  <!-- Compact radar display -->
  <g transform="translate(6, 6)">
    <!-- Outer radar ring -->
    <circle cx="24" cy="24" r="20" fill="none" stroke="url(#radarGradient)" stroke-width="2" opacity="0.8"/>
    
    <!-- Concentric circles (radii) -->
    <circle cx="24" cy="24" r="16" fill="none" stroke="url(#radarGradient)" stroke-width="1.2" opacity="0.6"/>
    <circle cx="24" cy="24" r="12" fill="none" stroke="url(#radarGradient)" stroke-width="1" opacity="0.5"/>
    <circle cx="24" cy="24" r="8" fill="none" stroke="url(#radarGradient)" stroke-width="0.8" opacity="0.4"/>
    <circle cx="24" cy="24" r="4" fill="none" stroke="url(#radarGradient)" stroke-width="0.6" opacity="0.3"/>
    
    <!-- Grid lines -->
    <line x1="4" y1="24" x2="44" y2="24" stroke="url(#radarGradient)" stroke-width="0.4" opacity="0.3"/>
    <line x1="24" y1="4" x2="24" y2="44" stroke="url(#radarGradient)" stroke-width="0.4" opacity="0.3"/>
    
    <!-- Dynamic radar sweep -->
    <line x1="24" y1="24" x2="40" y2="8" stroke="url(#sweepGradient)" stroke-width="2.5" opacity="0.9" filter="url(#sweepGlow)"/>
    <line x1="24" y1="24" x2="40" y2="24" stroke="url(#sweepGradient)" stroke-width="2" opacity="0.7" filter="url(#sweepGlow)"/>
    <line x1="24" y1="24" x2="40" y2="40" stroke="url(#sweepGradient)" stroke-width="1.5" opacity="0.5" filter="url(#sweepGlow)"/>
    
    <!-- Target blips -->
    <circle cx="32" cy="12" r="1.5" fill="url(#sweepGradient)" opacity="0.9" filter="url(#pulseGlow)"/>
    <circle cx="36" cy="32" r="1.2" fill="url(#sweepGradient)" opacity="0.8" filter="url(#pulseGlow)"/>
    <circle cx="12" cy="36" r="1" fill="url(#sweepGradient)" opacity="0.7" filter="url(#pulseGlow)"/>
    
    <!-- Center hub -->
    <circle cx="24" cy="24" r="1.5" fill="url(#centerGlow)"/>
    <circle cx="24" cy="24" r="0.8" fill="url(#sweepGradient)"/>
    
    <!-- Corner brackets -->
    <path d="M4 4 L6 4 L6 6 L4 6 Z" fill="url(#sweepGradient)" opacity="0.6"/>
    <path d="M42 4 L44 4 L44 6 L42 6 Z" fill="url(#sweepGradient)" opacity="0.6"/>
    <path d="M4 42 L6 42 L6 44 L4 44 Z" fill="url(#sweepGradient)" opacity="0.6"/>
    <path d="M42 42 L44 42 L44 44 L42 44 Z" fill="url(#sweepGradient)" opacity="0.6"/>
  </g>
</svg>
